<svg width="1440" height="1114" viewBox="0 0 1440 1114" fill="none" xmlns="http://www.w3.org/2000/svg">
<path d="M1772.38 826.123C1754.93 895.03 1706.11 952.564 1632.68 997.589C1559.25 1042.62 1461.23 1075.12 1345.48 1093.95C1113.97 1131.62 811.585 1114.62 493.217 1034C174.849 953.379 -99.1792 824.413 -284.858 681.096C-377.698 609.437 -448.431 534.205 -491.582 459.655C-534.732 385.107 -550.287 311.272 -532.837 242.365C-515.388 173.457 -466.566 115.924 -393.136 70.8983C-319.704 25.871 -221.69 -6.62819 -105.933 -25.4636C125.577 -63.1342 427.959 -46.1346 746.327 34.4868C1064.7 115.108 1338.72 244.075 1524.4 387.392C1617.24 459.051 1687.97 534.283 1731.13 608.833C1774.28 683.38 1789.83 757.216 1772.38 826.123Z" stroke="url(#paint0_linear_84_7469)"/>
<defs>
<linearGradient id="paint0_linear_84_7469" x1="-452.555" y1="202.676" x2="1543.61" y2="1030.81" gradientUnits="userSpaceOnUse">
<stop stop-color="#484848"/>
<stop offset="0.491388" stop-color="#484848" stop-opacity="0.36"/>
<stop offset="1" stop-color="#484848"/>
</linearGradient>
</defs>
</svg>
