<svg width="1440" height="1327" viewBox="0 0 1440 1327" fill="none" xmlns="http://www.w3.org/2000/svg">
<path d="M1194.67 679.826C1185.98 714.129 1161.67 742.789 1125.07 765.233C1088.46 787.679 1039.59 803.887 981.849 813.283C866.369 832.073 715.52 823.595 556.684 783.373C397.848 743.15 261.145 678.81 168.527 607.322C122.218 571.578 86.9491 534.062 65.4386 496.899C43.9297 459.74 36.1923 422.964 44.8789 388.661C53.5655 354.359 77.8735 325.698 114.476 303.254C151.081 280.809 199.955 264.6 257.695 255.205C373.175 236.414 524.024 244.892 682.86 285.115C841.696 325.337 978.399 389.677 1071.02 461.165C1117.33 496.909 1152.6 534.426 1174.11 571.588C1195.61 608.748 1203.35 645.523 1194.67 679.826Z" stroke="url(#paint0_linear_84_7466)"/>
<path d="M1455.27 745.82C1442.63 795.733 1407.27 837.418 1354.05 870.049C1300.83 902.681 1229.79 926.238 1145.88 939.892C978.06 967.199 758.855 954.877 528.054 896.431C297.254 837.984 98.6035 744.491 -35.9941 640.601C-103.294 588.656 -154.56 534.126 -185.833 480.098C-217.104 426.073 -228.368 372.58 -215.728 322.667C-203.088 272.754 -167.722 231.069 -114.507 198.439C-61.2891 165.807 9.75156 142.249 93.663 128.596C261.484 101.288 480.689 113.61 711.49 172.057C942.29 230.503 1140.94 323.996 1275.54 427.886C1342.84 479.831 1394.1 534.361 1425.38 588.389C1456.65 642.414 1467.91 695.908 1455.27 745.82Z" stroke="url(#paint1_linear_84_7466)"/>
<path d="M1772.38 826.123C1754.93 895.03 1706.11 952.564 1632.68 997.589C1559.25 1042.62 1461.23 1075.12 1345.48 1093.95C1113.97 1131.62 811.585 1114.62 493.217 1034C174.849 953.379 -99.1792 824.413 -284.858 681.096C-377.698 609.437 -448.431 534.205 -491.582 459.655C-534.732 385.107 -550.287 311.272 -532.837 242.365C-515.388 173.457 -466.566 115.924 -393.136 70.8983C-319.704 25.871 -221.69 -6.62819 -105.933 -25.4636C125.577 -63.1342 427.959 -46.1346 746.327 34.4868C1064.7 115.108 1338.72 244.075 1524.4 387.392C1617.24 459.051 1687.97 534.283 1731.13 608.833C1774.28 683.38 1789.83 757.216 1772.38 826.123Z" stroke="url(#paint2_linear_84_7466)"/>
<defs>
<linearGradient id="paint0_linear_84_7466" x1="84.6959" y1="368.796" x2="1080.76" y2="782.025" gradientUnits="userSpaceOnUse">
<stop stop-color="#484848"/>
<stop offset="0.491388" stop-color="#484848" stop-opacity="0.36"/>
<stop offset="1" stop-color="#484848"/>
</linearGradient>
<linearGradient id="paint1_linear_84_7466" x1="-157.657" y1="293.859" x2="1289.55" y2="894.253" gradientUnits="userSpaceOnUse">
<stop stop-color="#484848"/>
<stop offset="0.491388" stop-color="#484848" stop-opacity="0.36"/>
<stop offset="1" stop-color="#484848"/>
</linearGradient>
<linearGradient id="paint2_linear_84_7466" x1="-452.555" y1="202.676" x2="1543.61" y2="1030.81" gradientUnits="userSpaceOnUse">
<stop stop-color="#484848"/>
<stop offset="0.491388" stop-color="#484848" stop-opacity="0.36"/>
<stop offset="1" stop-color="#484848"/>
</linearGradient>
</defs>
</svg>
