<svg width="96" height="60" viewBox="0 0 96 60" fill="none" xmlns="http://www.w3.org/2000/svg">
<g id="Group 3">
<path id="Vector" d="M10.2442 35.1091V59.6889H0V0.157721C1.02681 0.157721 1.92627 0.157721 2.82572 0.157721C17.0976 0.157721 31.3615 0.181598 45.6334 0.11792C47.297 0.11792 48.3715 0.595506 49.4222 1.90887C64.4184 20.6143 79.4863 39.28 94.5223 57.9536C94.9203 58.4471 95.2705 58.9725 95.9232 59.856C91.4737 59.856 87.4779 59.9515 83.49 59.7764C82.71 59.7446 81.8185 58.8133 81.2374 58.0969C68.9475 42.8937 56.6656 27.6746 44.4553 12.4078C43.3648 11.0387 42.2982 10.4019 40.4993 10.4179C31.3535 10.5054 22.1998 10.4497 13.054 10.4577C12.2342 10.4577 11.4143 10.5373 10.4034 10.585V24.7375H42.1152V35.1011H10.2363L10.2442 35.1091Z" fill="#5EBB47"/>
<path id="Vector_2" d="M51.9104 38.2605C54.2506 41.1579 56.344 43.7527 58.6205 46.5705C55.2138 50.7971 51.8388 55.0238 48.4082 59.1947C48.0977 59.5688 47.4132 59.8156 46.8958 59.8235C42.9716 59.8713 39.0475 59.8553 34.5422 59.8553C40.4643 52.4926 46.0759 45.5118 51.9104 38.2685V38.2605Z" fill="white"/>
<path id="Vector_3" d="M95.9996 0.149597C90.0537 7.54422 84.4818 14.4692 78.6553 21.7206C76.3469 18.863 74.1898 16.1806 71.9452 13.4026C75.3122 9.21577 78.5757 5.10853 81.9188 1.06497C82.3247 0.57146 83.1685 0.205318 83.8132 0.189398C87.6657 0.109801 91.5103 0.149597 95.9996 0.149597Z" fill="white"/>
</g>
</svg>
