<svg width="55" height="51" viewBox="0 0 55 51" fill="none" xmlns="http://www.w3.org/2000/svg">
<path d="M40.9708 0.547852C34.5714 12.3689 31.0357 18.2638 27.4708 18.2638C23.9058 18.2638 20.3701 12.3689 14 0.547852C20.3701 12.3689 23.4091 18.6069 21.6266 21.8818C19.8442 25.1568 13.2695 25.4999 0.5 25.4999C13.737 25.4999 20.3117 25.843 21.8019 29.461C23.2045 32.8295 20.1656 39.0364 14 50.4519C20.3993 38.6309 23.9351 32.736 27.5 32.736C31.0649 32.736 34.6007 38.6309 41 50.4519C34.2208 37.8823 31.2403 31.6443 33.7532 28.5253C35.974 25.7806 42.5195 25.4999 54.5 25.4999C41 25.4999 34.4253 25.1256 33.1104 21.2892C31.9123 17.8583 34.9513 11.6827 40.9708 0.547852Z" fill="white"/>
</svg>
