<svg width="80" height="88" viewBox="0 0 80 88" fill="none" xmlns="http://www.w3.org/2000/svg">
<g filter="url(#filter0_b_84_7563)">
<path d="M0 47.8954C0 25.8618 17.9664 8 40 8C62.0336 8 80 25.8618 80 47.8954C80 69.929 62.0336 87.7908 40 87.7908C17.9664 87.7908 0 69.929 0 47.8954Z" fill="url(#paint0_radial_84_7563)"/>
<path d="M0.5 47.8954C0.5 26.1396 18.2408 8.5 40 8.5C61.7592 8.5 79.5 26.1396 79.5 47.8954C79.5 69.6512 61.7592 87.2908 40 87.2908C18.2408 87.2908 0.5 69.6512 0.5 47.8954Z" stroke="url(#paint1_radial_84_7563)"/>
<path d="M0.5 47.8954C0.5 26.1396 18.2408 8.5 40 8.5C61.7592 8.5 79.5 26.1396 79.5 47.8954C79.5 69.6512 61.7592 87.2908 40 87.2908C18.2408 87.2908 0.5 69.6512 0.5 47.8954Z" stroke="url(#paint2_radial_84_7563)"/>
<path d="M0.5 47.8954C0.5 26.1396 18.2408 8.5 40 8.5C61.7592 8.5 79.5 26.1396 79.5 47.8954C79.5 69.6512 61.7592 87.2908 40 87.2908C18.2408 87.2908 0.5 69.6512 0.5 47.8954Z" stroke="url(#paint3_radial_84_7563)"/>
</g>
<g filter="url(#filter1_f_84_7563)">
<ellipse cx="39.7436" cy="29.4822" rx="25.3846" ry="16.3673" fill="url(#paint4_radial_84_7563)" fill-opacity="0.2"/>
</g>
<path d="M22 48C22 48.5304 22.2107 49.0391 22.5858 49.4142C22.9609 49.7893 23.4696 50 24 50H36C36.5304 50 37.0391 49.7893 37.4142 49.4142C37.7893 49.0391 38 48.5304 38 48V32C38 31.4696 37.7893 30.9609 37.4142 30.5858C37.0391 30.2107 36.5304 30 36 30H24C23.4696 30 22.9609 30.2107 22.5858 30.5858C22.2107 30.9609 22 31.4696 22 32V48ZM22 64C22 64.5304 22.2107 65.0391 22.5858 65.4142C22.9609 65.7893 23.4696 66 24 66H36C36.5304 66 37.0391 65.7893 37.4142 65.4142C37.7893 65.0391 38 64.5304 38 64V56C38 55.4696 37.7893 54.9609 37.4142 54.5858C37.0391 54.2107 36.5304 54 36 54H24C23.4696 54 22.9609 54.2107 22.5858 54.5858C22.2107 54.9609 22 55.4696 22 56V64ZM42 64C42 64.5304 42.2107 65.0391 42.5858 65.4142C42.9609 65.7893 43.4696 66 44 66H56C56.5304 66 57.0391 65.7893 57.4142 65.4142C57.7893 65.0391 58 64.5304 58 64V48C58 47.4696 57.7893 46.9609 57.4142 46.5858C57.0391 46.2107 56.5304 46 56 46H44C43.4696 46 42.9609 46.2107 42.5858 46.5858C42.2107 46.9609 42 47.4696 42 48V64ZM44 30C43.4696 30 42.9609 30.2107 42.5858 30.5858C42.2107 30.9609 42 31.4696 42 32V40C42 40.5304 42.2107 41.0391 42.5858 41.4142C42.9609 41.7893 43.4696 42 44 42H56C56.5304 42 57.0391 41.7893 57.4142 41.4142C57.7893 41.0391 58 40.5304 58 40V32C58 31.4696 57.7893 30.9609 57.4142 30.5858C57.0391 30.2107 56.5304 30 56 30H44Z" fill="url(#paint5_linear_84_7563)"/>
<defs>
<filter id="filter0_b_84_7563" x="-5" y="3" width="90" height="89.7908" filterUnits="userSpaceOnUse" color-interpolation-filters="sRGB">
<feFlood flood-opacity="0" result="BackgroundImageFix"/>
<feGaussianBlur in="BackgroundImageFix" stdDeviation="2.5"/>
<feComposite in2="SourceAlpha" operator="in" result="effect1_backgroundBlur_84_7563"/>
<feBlend mode="normal" in="SourceGraphic" in2="effect1_backgroundBlur_84_7563" result="shape"/>
</filter>
<filter id="filter1_f_84_7563" x="1.40441" y="0.160334" width="76.6783" height="58.6437" filterUnits="userSpaceOnUse" color-interpolation-filters="sRGB">
<feFlood flood-opacity="0" result="BackgroundImageFix"/>
<feBlend mode="normal" in="SourceGraphic" in2="BackgroundImageFix" result="shape"/>
<feGaussianBlur stdDeviation="6.47727" result="effect1_foregroundBlur_84_7563"/>
</filter>
<radialGradient id="paint0_radial_84_7563" cx="0" cy="0" r="1" gradientUnits="userSpaceOnUse" gradientTransform="translate(6.69204 8) rotate(47.9449) scale(119.431 86.7751)">
<stop stop-color="white" stop-opacity="0.36"/>
<stop offset="1" stop-color="white" stop-opacity="0"/>
</radialGradient>
<radialGradient id="paint1_radial_84_7563" cx="0" cy="0" r="1" gradientUnits="userSpaceOnUse" gradientTransform="translate(-42.5965 16.1628) rotate(35.0407) scale(92.1512 54.3882)">
<stop stop-color="white"/>
<stop offset="1" stop-color="white" stop-opacity="0.06"/>
</radialGradient>
<radialGradient id="paint2_radial_84_7563" cx="0" cy="0" r="1" gradientUnits="userSpaceOnUse" gradientTransform="translate(103.421 61.4008) rotate(161.385) scale(66.8428 45.1784)">
<stop stop-color="#8470FF"/>
<stop offset="1" stop-color="#865CFF" stop-opacity="0"/>
</radialGradient>
<radialGradient id="paint3_radial_84_7563" cx="0" cy="0" r="1" gradientUnits="userSpaceOnUse" gradientTransform="translate(40.871 -10.2359) rotate(47.2149) scale(44.643 32.0879)">
<stop/>
<stop offset="1" stop-color="white" stop-opacity="0"/>
</radialGradient>
<radialGradient id="paint4_radial_84_7563" cx="0" cy="0" r="1" gradientUnits="userSpaceOnUse" gradientTransform="translate(39.7436 13.1149) rotate(90) scale(24.2566 37.625)">
<stop stop-color="white"/>
<stop offset="1" stop-color="white" stop-opacity="0"/>
</radialGradient>
<linearGradient id="paint5_linear_84_7563" x1="22" y1="30" x2="60.1012" y2="32.3813" gradientUnits="userSpaceOnUse">
<stop stop-color="#5EBB47"/>
<stop offset="1" stop-color="white"/>
</linearGradient>
</defs>
</svg>
